<svg xmlns="http://www.w3.org/2000/svg" xmlns:xlink="http://www.w3.org/1999/xlink" width="500" zoomAndPan="magnify" viewBox="0 0 375 374.999991" height="500" preserveAspectRatio="xMidYMid meet" version="1.0"><defs><clipPath id="ce6e940968"><path d="M 11 13 L 367 13 L 367 368.40625 L 11 368.40625 Z M 11 13 " clip-rule="nonzero"/></clipPath><clipPath id="6279f92721"><path d="M 306.0625 208.40625 C 308.023438 208.417969 309.980469 208.332031 311.929688 208.148438 C 313.882812 207.96875 315.820312 207.691406 317.746094 207.320312 C 319.671875 206.949219 321.574219 206.484375 323.453125 205.925781 C 325.332031 205.367188 327.179688 204.714844 328.992188 203.976562 C 330.808594 203.234375 332.582031 202.410156 334.316406 201.492188 C 336.050781 200.578125 337.738281 199.582031 339.371094 198.5 C 341.007812 197.421875 342.589844 196.265625 344.109375 195.027344 C 345.632812 193.792969 347.089844 192.484375 348.484375 191.109375 C 349.878906 189.730469 351.203125 188.285156 352.453125 186.777344 C 353.707031 185.269531 354.878906 183.703125 355.980469 182.078125 C 357.078125 180.453125 358.09375 178.78125 359.027344 177.054688 C 359.960938 175.332031 360.808594 173.566406 361.566406 171.761719 C 362.328125 169.953125 362.996094 168.113281 363.578125 166.242188 C 364.15625 164.367188 364.640625 162.46875 365.035156 160.550781 C 365.429688 158.628906 365.726562 156.695312 365.929688 154.746094 C 366.132812 152.792969 366.238281 150.839844 366.25 148.878906 C 366.261719 146.917969 366.175781 144.960938 365.996094 143.011719 C 365.8125 141.058594 365.535156 139.121094 365.164062 137.195312 C 364.792969 135.269531 364.328125 133.367188 363.769531 131.488281 C 363.210938 129.609375 362.558594 127.761719 361.820312 125.945312 C 361.078125 124.132812 360.253906 122.355469 359.335938 120.625 C 358.421875 118.890625 357.425781 117.203125 356.34375 115.566406 C 355.265625 113.933594 354.109375 112.351562 352.871094 110.832031 C 351.636719 109.308594 350.332031 107.851562 348.953125 106.457031 C 347.574219 105.0625 346.128906 103.738281 344.621094 102.488281 C 343.113281 101.234375 341.546875 100.058594 339.921875 98.960938 C 338.296875 97.863281 336.625 96.847656 334.902344 95.914062 C 333.175781 94.980469 331.410156 94.132812 329.605469 93.375 C 327.796875 92.613281 325.957031 91.945312 324.085938 91.363281 C 322.210938 90.785156 320.316406 90.296875 318.394531 89.90625 C 316.472656 89.511719 314.539062 89.214844 312.589844 89.011719 C 310.636719 88.808594 308.683594 88.703125 306.722656 88.691406 C 306.511719 87.769531 306.261719 86.859375 305.972656 85.960938 C 305.683594 85.0625 305.355469 84.175781 304.992188 83.304688 C 304.628906 82.433594 304.230469 81.578125 303.796875 80.738281 C 303.363281 79.902344 302.890625 79.082031 302.386719 78.285156 C 301.886719 77.484375 301.347656 76.707031 300.78125 75.953125 C 300.210938 75.199219 299.613281 74.472656 298.980469 73.769531 C 298.351562 73.066406 297.691406 72.390625 297.007812 71.742188 C 296.320312 71.09375 295.605469 70.472656 294.867188 69.886719 C 294.128906 69.296875 293.367188 68.742188 292.582031 68.214844 C 291.796875 67.691406 290.988281 67.203125 290.164062 66.746094 C 289.335938 66.289062 288.492188 65.867188 287.628906 65.480469 C 286.769531 65.09375 285.890625 64.746094 285 64.433594 C 284.109375 64.121094 283.207031 63.847656 282.292969 63.609375 C 281.378906 63.375 280.453125 63.175781 279.523438 63.015625 C 278.59375 62.859375 277.65625 62.738281 276.714844 62.660156 C 275.773438 62.578125 274.832031 62.539062 273.886719 62.535156 C 272.421875 62.535156 270.964844 62.632812 269.511719 62.820312 C 268.640625 61.753906 267.726562 60.722656 266.777344 59.726562 C 265.824219 58.730469 264.835938 57.773438 263.808594 56.855469 C 262.78125 55.9375 261.71875 55.058594 260.625 54.226562 C 259.53125 53.390625 258.402344 52.597656 257.246094 51.851562 C 256.089844 51.105469 254.90625 50.402344 253.695312 49.75 C 252.480469 49.09375 251.246094 48.488281 249.988281 47.929688 C 248.726562 47.371094 247.449219 46.863281 246.148438 46.40625 C 244.851562 45.949219 243.535156 45.542969 242.207031 45.1875 C 240.875 44.832031 239.53125 44.53125 238.175781 44.28125 C 236.824219 44.03125 235.460938 43.832031 234.089844 43.691406 C 232.722656 43.546875 231.347656 43.457031 229.972656 43.417969 C 228.59375 43.382812 227.21875 43.402344 225.84375 43.472656 C 224.46875 43.542969 223.097656 43.667969 221.730469 43.847656 C 220.367188 44.027344 219.007812 44.257812 217.660156 44.542969 C 216.3125 44.828125 214.980469 45.164062 213.660156 45.554688 C 212.335938 45.941406 211.035156 46.382812 209.746094 46.875 C 208.5 45.191406 207.191406 43.554688 205.820312 41.972656 C 204.449219 40.386719 203.019531 38.855469 201.535156 37.382812 C 200.046875 35.90625 198.503906 34.488281 196.910156 33.128906 C 195.316406 31.769531 193.671875 30.472656 191.980469 29.238281 C 190.289062 28.003906 188.550781 26.832031 186.769531 25.730469 C 184.988281 24.628906 183.167969 23.59375 181.308594 22.628906 C 179.449219 21.664062 177.554688 20.769531 175.628906 19.949219 C 173.703125 19.128906 171.746094 18.378906 169.761719 17.707031 C 167.777344 17.035156 165.769531 16.4375 163.742188 15.914062 C 161.710938 15.394531 159.667969 14.949219 157.605469 14.585938 C 155.539062 14.21875 153.46875 13.929688 151.382812 13.722656 C 149.296875 13.511719 147.207031 13.382812 145.113281 13.332031 C 143.019531 13.28125 140.925781 13.3125 138.832031 13.417969 C 136.742188 13.527344 134.65625 13.714844 132.578125 13.980469 C 130.5 14.246094 128.433594 14.59375 126.382812 15.015625 C 124.332031 15.4375 122.296875 15.9375 120.285156 16.515625 C 118.269531 17.089844 116.28125 17.742188 114.316406 18.472656 C 112.351562 19.199219 110.417969 20 108.511719 20.875 C 106.609375 21.75 104.742188 22.695312 102.910156 23.710938 C 101.078125 24.726562 99.285156 25.808594 97.535156 26.960938 C 95.785156 28.113281 94.082031 29.328125 92.421875 30.609375 C 90.765625 31.890625 89.15625 33.234375 87.601562 34.636719 C 86.046875 36.039062 84.542969 37.496094 83.097656 39.015625 C 81.652344 40.53125 80.265625 42.101562 78.941406 43.722656 C 77.613281 45.34375 76.351562 47.011719 75.148438 48.730469 C 73.949219 50.445312 72.816406 52.207031 71.75 54.011719 C 70.683594 55.8125 69.6875 57.65625 68.757812 59.535156 C 67.832031 61.414062 66.976562 63.324219 66.195312 65.265625 C 65.414062 67.210938 64.707031 69.179688 64.074219 71.179688 C 63.441406 73.175781 62.882812 75.195312 62.402344 77.234375 C 61.921875 79.273438 61.519531 81.328125 61.195312 83.398438 C 60.875 85.46875 60.628906 87.546875 60.460938 89.632812 C 58.640625 89.960938 56.839844 90.371094 55.058594 90.867188 C 53.277344 91.359375 51.523438 91.933594 49.792969 92.589844 C 48.066406 93.246094 46.371094 93.984375 44.710938 94.796875 C 43.050781 95.609375 41.429688 96.5 39.851562 97.460938 C 38.273438 98.425781 36.746094 99.460938 35.261719 100.566406 C 33.78125 101.671875 32.351562 102.84375 30.980469 104.078125 C 29.605469 105.316406 28.292969 106.617188 27.039062 107.976562 C 25.785156 109.335938 24.597656 110.75 23.476562 112.21875 C 22.355469 113.6875 21.300781 115.207031 20.320312 116.773438 C 19.339844 118.339844 18.433594 119.949219 17.597656 121.597656 C 16.765625 123.25 16.011719 124.9375 15.335938 126.65625 C 14.660156 128.378906 14.066406 130.125 13.550781 131.902344 C 13.035156 133.679688 12.605469 135.472656 12.257812 137.289062 C 11.910156 139.105469 11.648438 140.933594 11.46875 142.773438 C 11.289062 144.613281 11.199219 146.460938 11.191406 148.308594 C 11.183594 150.15625 11.261719 152.003906 11.425781 153.84375 C 11.585938 155.6875 11.835938 157.515625 12.167969 159.335938 C 12.503906 161.152344 12.917969 162.953125 13.417969 164.734375 C 13.917969 166.511719 14.5 168.265625 15.164062 169.992188 C 15.824219 171.71875 16.566406 173.410156 17.382812 175.066406 C 18.203125 176.726562 19.097656 178.339844 20.066406 179.914062 C 21.035156 181.492188 22.074219 183.015625 23.183594 184.496094 C 24.296875 185.972656 25.472656 187.398438 26.714844 188.765625 C 27.957031 190.136719 29.257812 191.445312 30.625 192.695312 C 31.988281 193.941406 33.40625 195.125 34.878906 196.242188 C 36.351562 197.359375 37.875 198.40625 39.445312 199.382812 C 41.015625 200.359375 42.625 201.261719 44.28125 202.085938 C 45.933594 202.914062 47.621094 203.664062 49.34375 204.332031 C 51.066406 205.003906 52.816406 205.59375 54.597656 206.101562 C 56.375 206.609375 58.171875 207.035156 59.988281 207.375 C 61.804688 207.71875 63.632812 207.972656 65.476562 208.144531 C 67.316406 208.316406 69.160156 208.40625 71.011719 208.40625 L 83.898438 208.40625 L 83.898438 250.714844 C 83.898438 251.671875 83.855469 252.628906 83.769531 253.585938 C 83.683594 254.539062 83.558594 255.488281 83.390625 256.433594 C 83.226562 257.375 83.019531 258.3125 82.769531 259.238281 C 82.523438 260.164062 82.234375 261.078125 81.910156 261.976562 C 81.582031 262.878906 81.21875 263.765625 80.8125 264.632812 C 80.410156 265.503906 79.96875 266.355469 79.492188 267.183594 C 79.015625 268.015625 78.503906 268.824219 77.957031 269.613281 C 77.410156 270.398438 76.828125 271.160156 76.214844 271.898438 C 75.601562 272.636719 74.960938 273.34375 74.285156 274.023438 C 73.609375 274.707031 72.90625 275.355469 72.175781 275.976562 C 71.445312 276.597656 70.691406 277.183594 69.910156 277.738281 C 69.125 278.292969 68.324219 278.816406 67.496094 279.300781 C 66.667969 279.785156 65.824219 280.234375 64.957031 280.644531 C 64.09375 281.058594 63.210938 281.429688 62.3125 281.765625 C 61.414062 282.101562 60.503906 282.398438 59.582031 282.65625 C 58.65625 282.910156 57.722656 283.128906 56.78125 283.304688 C 56.460938 282.441406 56.09375 281.601562 55.675781 280.78125 C 55.257812 279.964844 54.792969 279.171875 54.28125 278.410156 C 53.769531 277.644531 53.21875 276.914062 52.621094 276.214844 C 52.023438 275.515625 51.386719 274.851562 50.714844 274.230469 C 50.039062 273.605469 49.332031 273.019531 48.589844 272.480469 C 47.847656 271.9375 47.074219 271.441406 46.273438 270.992188 C 45.472656 270.539062 44.648438 270.136719 43.800781 269.78125 C 42.953125 269.429688 42.085938 269.125 41.203125 268.871094 C 40.320312 268.617188 39.421875 268.417969 38.515625 268.269531 C 37.609375 268.125 36.695312 268.027344 35.777344 267.988281 C 34.859375 267.949219 33.941406 267.960938 33.027344 268.027344 C 32.109375 268.09375 31.199219 268.214844 30.296875 268.386719 C 29.394531 268.5625 28.503906 268.785156 27.628906 269.066406 C 26.753906 269.34375 25.894531 269.671875 25.058594 270.046875 C 24.21875 270.425781 23.40625 270.851562 22.621094 271.328125 C 21.832031 271.800781 21.074219 272.316406 20.347656 272.878906 C 19.621094 273.441406 18.929688 274.046875 18.273438 274.6875 C 17.617188 275.332031 17 276.011719 16.425781 276.726562 C 15.847656 277.445312 15.316406 278.191406 14.824219 278.96875 C 14.335938 279.746094 13.894531 280.550781 13.5 281.382812 C 13.105469 282.210938 12.761719 283.0625 12.464844 283.933594 C 12.171875 284.804688 11.929688 285.6875 11.738281 286.585938 C 11.546875 287.484375 11.40625 288.394531 11.324219 289.308594 C 11.238281 290.222656 11.207031 291.140625 11.230469 292.058594 C 11.253906 292.976562 11.328125 293.894531 11.457031 294.800781 C 11.589844 295.710938 11.769531 296.613281 12.007812 297.5 C 12.242188 298.386719 12.527344 299.261719 12.867188 300.113281 C 13.203125 300.96875 13.589844 301.800781 14.027344 302.613281 C 14.460938 303.421875 14.941406 304.203125 15.46875 304.957031 C 15.996094 305.707031 16.566406 306.429688 17.175781 307.113281 C 17.789062 307.800781 18.4375 308.449219 19.125 309.058594 C 19.8125 309.671875 20.53125 310.238281 21.285156 310.765625 C 22.039062 311.289062 22.820312 311.769531 23.632812 312.203125 C 24.441406 312.636719 25.273438 313.023438 26.128906 313.359375 C 26.984375 313.695312 27.859375 313.980469 28.746094 314.214844 C 29.636719 314.449219 30.535156 314.628906 31.445312 314.757812 C 32.355469 314.886719 33.269531 314.960938 34.1875 314.984375 C 35.105469 315.003906 36.023438 314.972656 36.9375 314.886719 C 37.855469 314.800781 38.761719 314.660156 39.660156 314.46875 C 40.558594 314.277344 41.441406 314.03125 42.3125 313.734375 C 43.183594 313.441406 44.03125 313.09375 44.863281 312.699219 C 45.691406 312.300781 46.496094 311.859375 47.273438 311.367188 C 48.050781 310.878906 48.796875 310.34375 49.511719 309.765625 C 50.226562 309.191406 50.90625 308.574219 51.546875 307.914062 C 52.191406 307.257812 52.792969 306.566406 53.355469 305.835938 C 53.914062 305.109375 54.433594 304.351562 54.902344 303.5625 C 55.375 302.773438 55.800781 301.960938 56.179688 301.125 C 56.554688 300.285156 56.882812 299.425781 57.160156 298.550781 C 58.589844 298.355469 60.011719 298.097656 61.421875 297.773438 C 62.828125 297.453125 64.222656 297.066406 65.597656 296.621094 C 66.972656 296.171875 68.324219 295.664062 69.652344 295.097656 C 70.980469 294.527344 72.28125 293.902344 73.554688 293.214844 C 74.828125 292.53125 76.066406 291.789062 77.273438 290.992188 C 78.480469 290.195312 79.648438 289.347656 80.777344 288.449219 C 81.910156 287.546875 82.996094 286.597656 84.042969 285.597656 C 85.085938 284.597656 86.085938 283.554688 87.035156 282.46875 C 87.988281 281.378906 88.890625 280.25 89.738281 279.082031 C 90.589844 277.914062 91.386719 276.710938 92.128906 275.46875 C 92.871094 274.230469 93.554688 272.957031 94.183594 271.65625 C 94.8125 270.355469 95.382812 269.027344 95.890625 267.675781 C 96.402344 266.320312 96.847656 264.949219 97.234375 263.554688 C 97.621094 262.164062 97.945312 260.753906 98.207031 259.332031 C 98.464844 257.910156 98.660156 256.480469 98.792969 255.042969 C 98.925781 253.601562 98.992188 252.160156 98.996094 250.714844 L 98.996094 208.40625 L 150.550781 208.40625 L 150.550781 322.234375 C 149.675781 322.527344 148.820312 322.875 147.988281 323.269531 C 147.15625 323.667969 146.347656 324.109375 145.566406 324.601562 C 144.785156 325.089844 144.035156 325.625 143.316406 326.203125 C 142.597656 326.78125 141.914062 327.402344 141.269531 328.0625 C 140.621094 328.71875 140.015625 329.414062 139.453125 330.144531 C 138.886719 330.875 138.367188 331.632812 137.894531 332.425781 C 137.417969 333.214844 136.992188 334.03125 136.613281 334.875 C 136.230469 335.714844 135.902344 336.574219 135.625 337.457031 C 135.347656 338.335938 135.121094 339.226562 134.949219 340.132812 C 134.773438 341.042969 134.65625 341.953125 134.589844 342.875 C 134.523438 343.796875 134.511719 344.714844 134.554688 345.636719 C 134.59375 346.558594 134.691406 347.476562 134.839844 348.386719 C 134.992188 349.296875 135.191406 350.195312 135.449219 351.082031 C 135.703125 351.96875 136.011719 352.839844 136.367188 353.6875 C 136.722656 354.539062 137.128906 355.367188 137.585938 356.167969 C 138.039062 356.972656 138.539062 357.746094 139.085938 358.492188 C 139.628906 359.234375 140.21875 359.945312 140.84375 360.621094 C 141.472656 361.296875 142.140625 361.933594 142.84375 362.527344 C 143.546875 363.125 144.28125 363.679688 145.050781 364.191406 C 145.820312 364.703125 146.617188 365.164062 147.4375 365.582031 C 148.261719 366 149.105469 366.367188 149.972656 366.6875 C 150.839844 367.003906 151.722656 367.269531 152.617188 367.484375 C 153.515625 367.699219 154.421875 367.859375 155.339844 367.96875 C 156.253906 368.078125 157.175781 368.132812 158.097656 368.132812 C 159.019531 368.132812 159.941406 368.078125 160.855469 367.96875 C 161.773438 367.859375 162.679688 367.699219 163.578125 367.484375 C 164.476562 367.269531 165.355469 367.003906 166.222656 366.6875 C 167.089844 366.367188 167.933594 366 168.757812 365.582031 C 169.578125 365.164062 170.375 364.703125 171.144531 364.191406 C 171.914062 363.679688 172.648438 363.125 173.351562 362.527344 C 174.054688 361.933594 174.722656 361.296875 175.351562 360.621094 C 175.980469 359.945312 176.566406 359.234375 177.109375 358.492188 C 177.65625 357.746094 178.15625 356.972656 178.609375 356.167969 C 179.066406 355.367188 179.472656 354.539062 179.828125 353.6875 C 180.1875 352.835938 180.492188 351.96875 180.746094 351.082031 C 181.003906 350.195312 181.203125 349.296875 181.355469 348.386719 C 181.503906 347.476562 181.601562 346.558594 181.640625 345.636719 C 181.683594 344.714844 181.671875 343.796875 181.605469 342.875 C 181.539062 341.953125 181.421875 341.039062 181.246094 340.132812 C 181.074219 339.226562 180.847656 338.335938 180.570312 337.457031 C 180.292969 336.574219 179.964844 335.714844 179.585938 334.875 C 179.203125 334.03125 178.777344 333.214844 178.300781 332.425781 C 177.828125 331.632812 177.308594 330.875 176.742188 330.144531 C 176.179688 329.414062 175.574219 328.71875 174.925781 328.0625 C 174.28125 327.402344 173.597656 326.78125 172.878906 326.203125 C 172.160156 325.625 171.410156 325.089844 170.628906 324.601562 C 169.847656 324.109375 169.042969 323.667969 168.207031 323.269531 C 167.375 322.875 166.519531 322.527344 165.644531 322.234375 L 165.644531 208.40625 L 217.21875 208.40625 L 217.21875 297.363281 C 216.347656 297.65625 215.492188 298.003906 214.660156 298.398438 C 213.828125 298.792969 213.019531 299.238281 212.242188 299.726562 C 211.460938 300.21875 210.710938 300.753906 209.992188 301.332031 C 209.273438 301.910156 208.59375 302.527344 207.949219 303.1875 C 207.300781 303.84375 206.699219 304.539062 206.132812 305.269531 C 205.570312 305.996094 205.050781 306.757812 204.578125 307.546875 C 204.101562 308.339844 203.675781 309.152344 203.296875 309.996094 C 202.917969 310.835938 202.589844 311.695312 202.3125 312.574219 C 202.035156 313.453125 201.808594 314.34375 201.636719 315.25 C 201.460938 316.15625 201.34375 317.070312 201.277344 317.988281 C 201.210938 318.90625 201.199219 319.828125 201.242188 320.75 C 201.285156 321.671875 201.378906 322.585938 201.53125 323.496094 C 201.679688 324.40625 201.882812 325.300781 202.136719 326.1875 C 202.390625 327.074219 202.699219 327.941406 203.054688 328.792969 C 203.414062 329.640625 203.816406 330.46875 204.273438 331.269531 C 204.726562 332.074219 205.226562 332.847656 205.769531 333.589844 C 206.316406 334.332031 206.902344 335.042969 207.53125 335.71875 C 208.160156 336.390625 208.824219 337.027344 209.527344 337.625 C 210.230469 338.222656 210.964844 338.773438 211.734375 339.285156 C 212.5 339.796875 213.296875 340.257812 214.117188 340.675781 C 214.941406 341.09375 215.785156 341.460938 216.648438 341.777344 C 217.515625 342.09375 218.394531 342.359375 219.292969 342.574219 C 220.191406 342.789062 221.097656 342.949219 222.011719 343.058594 C 222.925781 343.167969 223.84375 343.222656 224.769531 343.222656 C 225.691406 343.222656 226.609375 343.167969 227.523438 343.058594 C 228.441406 342.949219 229.34375 342.789062 230.242188 342.574219 C 231.140625 342.359375 232.019531 342.09375 232.886719 341.777344 C 233.75 341.460938 234.59375 341.09375 235.417969 340.675781 C 236.238281 340.257812 237.035156 339.796875 237.800781 339.285156 C 238.570312 338.773438 239.304688 338.222656 240.007812 337.625 C 240.710938 337.027344 241.375 336.390625 242.003906 335.71875 C 242.632812 335.042969 243.21875 334.332031 243.765625 333.589844 C 244.308594 332.847656 244.808594 332.074219 245.261719 331.269531 C 245.71875 330.46875 246.121094 329.640625 246.480469 328.792969 C 246.835938 327.941406 247.144531 327.074219 247.398438 326.1875 C 247.652344 325.300781 247.855469 324.40625 248.003906 323.496094 C 248.15625 322.585938 248.25 321.671875 248.292969 320.75 C 248.335938 319.828125 248.324219 318.90625 248.257812 317.988281 C 248.191406 317.070312 248.074219 316.15625 247.898438 315.25 C 247.726562 314.34375 247.5 313.453125 247.222656 312.574219 C 246.945312 311.695312 246.617188 310.835938 246.238281 309.996094 C 245.859375 309.152344 245.433594 308.339844 244.957031 307.546875 C 244.484375 306.757812 243.964844 305.996094 243.402344 305.269531 C 242.835938 304.539062 242.234375 303.84375 241.585938 303.1875 C 240.941406 302.527344 240.261719 301.910156 239.542969 301.332031 C 238.824219 300.753906 238.074219 300.21875 237.292969 299.726562 C 236.515625 299.238281 235.707031 298.792969 234.875 298.398438 C 234.042969 298.003906 233.1875 297.65625 232.316406 297.363281 L 232.316406 208.40625 L 279.113281 208.40625 L 279.113281 242.375 C 279.117188 243.785156 279.183594 245.195312 279.308594 246.601562 C 279.4375 248.007812 279.628906 249.40625 279.882812 250.796875 C 280.132812 252.1875 280.449219 253.5625 280.824219 254.921875 C 281.203125 256.285156 281.636719 257.625 282.132812 258.949219 C 282.632812 260.269531 283.183594 261.566406 283.796875 262.839844 C 284.410156 264.113281 285.078125 265.355469 285.804688 266.570312 C 286.527344 267.78125 287.304688 268.960938 288.132812 270.101562 C 288.960938 271.246094 289.839844 272.351562 290.769531 273.414062 C 291.695312 274.480469 292.671875 275.5 293.691406 276.476562 C 294.710938 277.457031 295.769531 278.386719 296.875 279.269531 C 297.976562 280.148438 299.117188 280.980469 300.292969 281.761719 C 301.472656 282.542969 302.679688 283.269531 303.921875 283.941406 C 305.164062 284.613281 306.4375 285.226562 307.734375 285.785156 C 309.03125 286.34375 310.351562 286.84375 311.691406 287.285156 C 313.035156 287.722656 314.394531 288.105469 315.769531 288.421875 C 317.144531 288.742188 318.53125 288.996094 319.933594 289.191406 C 320.207031 290.070312 320.535156 290.933594 320.914062 291.773438 C 321.289062 292.617188 321.714844 293.433594 322.1875 294.226562 C 322.660156 295.015625 323.179688 295.777344 323.742188 296.511719 C 324.304688 297.242188 324.90625 297.9375 325.550781 298.597656 C 326.195312 299.257812 326.875 299.878906 327.59375 300.460938 C 328.308594 301.039062 329.058594 301.578125 329.835938 302.070312 C 330.617188 302.5625 331.421875 303.007812 332.253906 303.40625 C 333.085938 303.804688 333.941406 304.152344 334.8125 304.453125 C 335.6875 304.75 336.574219 304.996094 337.476562 305.191406 C 338.378906 305.382812 339.289062 305.523438 340.207031 305.613281 C 341.125 305.699219 342.046875 305.734375 342.96875 305.710938 C 343.890625 305.691406 344.808594 305.617188 345.722656 305.488281 C 346.636719 305.359375 347.539062 305.179688 348.429688 304.945312 C 349.324219 304.710938 350.199219 304.425781 351.058594 304.085938 C 351.914062 303.75 352.75 303.363281 353.566406 302.929688 C 354.378906 302.492188 355.164062 302.011719 355.921875 301.484375 C 356.679688 300.957031 357.402344 300.386719 358.09375 299.777344 C 358.78125 299.164062 359.433594 298.511719 360.046875 297.824219 C 360.660156 297.136719 361.234375 296.414062 361.761719 295.65625 C 362.292969 294.902344 362.773438 294.117188 363.210938 293.304688 C 363.648438 292.492188 364.035156 291.65625 364.375 290.800781 C 364.714844 289.941406 365.003906 289.066406 365.238281 288.175781 C 365.476562 287.285156 365.660156 286.382812 365.789062 285.46875 C 365.921875 284.554688 365.996094 283.636719 366.019531 282.714844 C 366.042969 281.792969 366.011719 280.871094 365.925781 279.953125 C 365.839844 279.035156 365.703125 278.125 365.511719 277.222656 C 365.320312 276.320312 365.074219 275.429688 364.777344 274.558594 C 364.480469 273.683594 364.136719 272.832031 363.738281 271.996094 C 363.34375 271.164062 362.898438 270.355469 362.410156 269.574219 C 361.917969 268.792969 361.382812 268.046875 360.804688 267.328125 C 360.226562 266.609375 359.605469 265.925781 358.945312 265.28125 C 358.289062 264.636719 357.59375 264.03125 356.863281 263.464844 C 356.132812 262.902344 355.371094 262.382812 354.582031 261.90625 C 353.789062 261.433594 352.976562 261.003906 352.132812 260.625 C 351.292969 260.246094 350.433594 259.917969 349.554688 259.640625 C 348.671875 259.363281 347.78125 259.136719 346.875 258.960938 C 345.96875 258.789062 345.054688 258.667969 344.136719 258.601562 C 343.214844 258.535156 342.292969 258.523438 341.371094 258.566406 C 340.449219 258.609375 339.535156 258.703125 338.625 258.851562 C 337.714844 259 336.816406 259.203125 335.929688 259.457031 C 335.042969 259.710938 334.171875 260.019531 333.320312 260.375 C 332.472656 260.730469 331.644531 261.136719 330.839844 261.589844 C 330.039062 262.042969 329.261719 262.542969 328.519531 263.085938 C 327.773438 263.632812 327.0625 264.21875 326.386719 264.84375 C 325.710938 265.472656 325.074219 266.136719 324.476562 266.839844 C 323.878906 267.542969 323.324219 268.277344 322.8125 269.046875 C 322.300781 269.8125 321.835938 270.609375 321.417969 271.429688 C 320.996094 272.253906 320.628906 273.097656 320.308594 273.960938 C 319.398438 273.785156 318.496094 273.570312 317.605469 273.316406 C 316.714844 273.0625 315.835938 272.773438 314.96875 272.441406 C 314.101562 272.113281 313.25 271.746094 312.414062 271.34375 C 311.582031 270.9375 310.765625 270.5 309.964844 270.027344 C 309.167969 269.554688 308.394531 269.046875 307.640625 268.503906 C 306.886719 267.964844 306.160156 267.390625 305.453125 266.789062 C 304.75 266.183594 304.074219 265.550781 303.425781 264.890625 C 302.777344 264.226562 302.15625 263.539062 301.566406 262.824219 C 300.976562 262.109375 300.417969 261.367188 299.894531 260.605469 C 299.367188 259.839844 298.875 259.054688 298.417969 258.25 C 297.957031 257.441406 297.535156 256.617188 297.148438 255.777344 C 296.761719 254.933594 296.414062 254.074219 296.097656 253.203125 C 295.785156 252.328125 295.511719 251.445312 295.277344 250.546875 C 295.039062 249.652344 294.84375 248.746094 294.683594 247.832031 C 294.527344 246.917969 294.40625 246 294.328125 245.074219 C 294.25 244.152344 294.210938 243.226562 294.210938 242.296875 L 294.210938 208.332031 Z M 34.703125 299.890625 C 34.148438 299.886719 33.601562 299.828125 33.058594 299.714844 C 32.515625 299.601562 31.988281 299.4375 31.480469 299.222656 C 30.96875 299.003906 30.484375 298.742188 30.027344 298.429688 C 29.570312 298.117188 29.144531 297.765625 28.757812 297.371094 C 28.367188 296.976562 28.019531 296.546875 27.714844 296.085938 C 27.410156 295.621094 27.15625 295.132812 26.945312 294.621094 C 26.738281 294.105469 26.582031 293.578125 26.476562 293.035156 C 26.371094 292.488281 26.320312 291.941406 26.324219 291.386719 C 26.328125 290.832031 26.386719 290.285156 26.496094 289.742188 C 26.605469 289.199219 26.769531 288.671875 26.984375 288.160156 C 27.199219 287.652344 27.460938 287.164062 27.773438 286.707031 C 28.082031 286.246094 28.433594 285.824219 28.828125 285.433594 C 29.21875 285.042969 29.648438 284.695312 30.109375 284.390625 C 30.570312 284.082031 31.058594 283.824219 31.570312 283.613281 C 32.085938 283.40625 32.613281 283.246094 33.15625 283.140625 C 33.699219 283.035156 34.25 282.980469 34.804688 282.984375 C 35.355469 282.984375 35.90625 283.039062 36.449219 283.148438 C 36.992188 283.257812 37.519531 283.421875 38.03125 283.632812 C 38.542969 283.847656 39.027344 284.109375 39.488281 284.417969 C 39.949219 284.726562 40.375 285.074219 40.765625 285.46875 C 41.15625 285.859375 41.503906 286.285156 41.8125 286.746094 C 42.121094 287.207031 42.378906 287.695312 42.589844 288.207031 C 42.800781 288.71875 42.960938 289.246094 43.070312 289.789062 C 43.179688 290.335938 43.230469 290.882812 43.230469 291.4375 C 43.230469 291.996094 43.175781 292.546875 43.066406 293.09375 C 42.953125 293.640625 42.792969 294.171875 42.578125 294.6875 C 42.359375 295.203125 42.097656 295.691406 41.785156 296.152344 C 41.472656 296.617188 41.121094 297.042969 40.722656 297.4375 C 40.328125 297.828125 39.898438 298.179688 39.429688 298.488281 C 38.964844 298.792969 38.476562 299.054688 37.957031 299.265625 C 37.441406 299.476562 36.910156 299.632812 36.363281 299.738281 C 35.8125 299.84375 35.261719 299.894531 34.703125 299.890625 Z M 158.097656 352.992188 C 157.542969 352.992188 156.992188 352.9375 156.449219 352.828125 C 155.90625 352.71875 155.378906 352.554688 154.867188 352.34375 C 154.351562 352.128906 153.867188 351.867188 153.40625 351.558594 C 152.945312 351.25 152.519531 350.898438 152.128906 350.503906 C 151.734375 350.113281 151.386719 349.683594 151.078125 349.222656 C 150.773438 348.761719 150.511719 348.273438 150.300781 347.761719 C 150.089844 347.246094 149.929688 346.71875 149.824219 346.175781 C 149.714844 345.628906 149.660156 345.082031 149.664062 344.527344 C 149.664062 343.972656 149.71875 343.421875 149.828125 342.878906 C 149.9375 342.332031 150.097656 341.804688 150.308594 341.292969 C 150.523438 340.78125 150.785156 340.292969 151.09375 339.832031 C 151.402344 339.371094 151.753906 338.945312 152.144531 338.554688 C 152.539062 338.164062 152.964844 337.8125 153.425781 337.503906 C 153.886719 337.195312 154.375 336.9375 154.886719 336.726562 C 155.402344 336.511719 155.929688 336.355469 156.472656 336.246094 C 157.019531 336.136719 157.566406 336.085938 158.121094 336.085938 C 158.679688 336.085938 159.226562 336.140625 159.769531 336.25 C 160.316406 336.355469 160.84375 336.515625 161.355469 336.730469 C 161.867188 336.941406 162.355469 337.203125 162.816406 337.511719 C 163.277344 337.820312 163.703125 338.171875 164.097656 338.5625 C 164.488281 338.957031 164.839844 339.382812 165.148438 339.84375 C 165.457031 340.304688 165.714844 340.792969 165.925781 341.304688 C 166.140625 341.816406 166.300781 342.347656 166.410156 342.890625 C 166.515625 343.433594 166.570312 343.984375 166.570312 344.539062 C 166.570312 345.09375 166.515625 345.644531 166.40625 346.1875 C 166.296875 346.734375 166.132812 347.261719 165.921875 347.773438 C 165.707031 348.289062 165.445312 348.777344 165.136719 349.238281 C 164.828125 349.699219 164.476562 350.125 164.082031 350.519531 C 163.6875 350.910156 163.261719 351.261719 162.800781 351.570312 C 162.335938 351.878906 161.847656 352.136719 161.335938 352.351562 C 160.824219 352.5625 160.292969 352.722656 159.75 352.832031 C 159.203125 352.9375 158.652344 352.992188 158.097656 352.992188 Z M 224.769531 328.121094 C 224.210938 328.121094 223.660156 328.070312 223.113281 327.960938 C 222.566406 327.855469 222.035156 327.695312 221.523438 327.484375 C 221.007812 327.269531 220.519531 327.011719 220.054688 326.703125 C 219.589844 326.394531 219.164062 326.042969 218.769531 325.652344 C 218.375 325.257812 218.023438 324.832031 217.710938 324.367188 C 217.402344 323.90625 217.140625 323.417969 216.925781 322.902344 C 216.710938 322.390625 216.550781 321.859375 216.441406 321.316406 C 216.332031 320.769531 216.277344 320.21875 216.277344 319.660156 C 216.273438 319.105469 216.328125 318.554688 216.4375 318.007812 C 216.542969 317.460938 216.703125 316.929688 216.917969 316.417969 C 217.128906 315.902344 217.390625 315.414062 217.699219 314.949219 C 218.007812 314.488281 218.359375 314.058594 218.75 313.664062 C 219.144531 313.269531 219.570312 312.917969 220.035156 312.609375 C 220.496094 312.296875 220.984375 312.035156 221.5 311.824219 C 222.011719 311.609375 222.542969 311.449219 223.089844 311.339844 C 223.632812 311.230469 224.1875 311.175781 224.742188 311.175781 C 225.300781 311.175781 225.851562 311.230469 226.394531 311.335938 C 226.941406 311.445312 227.472656 311.605469 227.988281 311.820312 C 228.5 312.03125 228.988281 312.292969 229.453125 312.601562 C 229.914062 312.910156 230.34375 313.261719 230.738281 313.65625 C 231.132812 314.046875 231.484375 314.476562 231.792969 314.9375 C 232.101562 315.402344 232.363281 315.890625 232.574219 316.40625 C 232.789062 316.917969 232.949219 317.449219 233.058594 317.996094 C 233.167969 318.539062 233.222656 319.089844 233.222656 319.648438 C 233.21875 320.203125 233.164062 320.753906 233.054688 321.296875 C 232.945312 321.84375 232.785156 322.371094 232.574219 322.882812 C 232.359375 323.394531 232.101562 323.882812 231.792969 324.34375 C 231.484375 324.808594 231.132812 325.234375 230.742188 325.628906 C 230.347656 326.019531 229.921875 326.371094 229.460938 326.679688 C 229 326.992188 228.515625 327.253906 228 327.464844 C 227.488281 327.679688 226.960938 327.84375 226.417969 327.953125 C 225.871094 328.0625 225.324219 328.117188 224.769531 328.121094 Z M 342.371094 273.566406 C 342.925781 273.566406 343.472656 273.621094 344.019531 273.730469 C 344.5625 273.835938 345.089844 273.996094 345.605469 274.210938 C 346.117188 274.421875 346.605469 274.683594 347.066406 274.992188 C 347.527344 275.300781 347.953125 275.648438 348.347656 276.042969 C 348.738281 276.433594 349.089844 276.863281 349.398438 277.324219 C 349.707031 277.785156 349.96875 278.273438 350.179688 278.785156 C 350.390625 279.296875 350.550781 279.828125 350.660156 280.371094 C 350.769531 280.914062 350.824219 281.464844 350.824219 282.019531 C 350.824219 282.574219 350.769531 283.125 350.660156 283.667969 C 350.550781 284.214844 350.390625 284.742188 350.179688 285.253906 C 349.96875 285.769531 349.707031 286.253906 349.398438 286.71875 C 349.089844 287.179688 348.738281 287.605469 348.347656 288 C 347.953125 288.390625 347.527344 288.742188 347.066406 289.050781 C 346.605469 289.359375 346.117188 289.617188 345.605469 289.832031 C 345.089844 290.042969 344.5625 290.203125 344.019531 290.3125 C 343.472656 290.421875 342.925781 290.472656 342.371094 290.472656 C 341.8125 290.472656 341.265625 290.421875 340.71875 290.3125 C 340.175781 290.203125 339.648438 290.042969 339.132812 289.832031 C 338.621094 289.617188 338.132812 289.359375 337.671875 289.050781 C 337.210938 288.742188 336.785156 288.390625 336.390625 288 C 336 287.605469 335.648438 287.179688 335.339844 286.71875 C 335.03125 286.253906 334.769531 285.769531 334.558594 285.253906 C 334.347656 284.742188 334.1875 284.214844 334.078125 283.667969 C 333.96875 283.125 333.914062 282.574219 333.914062 282.019531 C 333.917969 281.464844 333.972656 280.917969 334.082031 280.371094 C 334.191406 279.828125 334.351562 279.300781 334.5625 278.789062 C 334.777344 278.277344 335.039062 277.789062 335.347656 277.328125 C 335.652344 276.867188 336.003906 276.441406 336.398438 276.046875 C 336.789062 275.65625 337.214844 275.304688 337.675781 274.996094 C 338.136719 274.6875 338.625 274.429688 339.136719 274.214844 C 339.648438 274.003906 340.175781 273.839844 340.722656 273.730469 C 341.265625 273.621094 341.816406 273.566406 342.371094 273.566406 Z M 26.25 148.546875 C 26.25 147.140625 26.316406 145.738281 26.449219 144.335938 C 26.582031 142.9375 26.78125 141.546875 27.046875 140.164062 C 27.308594 138.78125 27.636719 137.417969 28.03125 136.066406 C 28.425781 134.714844 28.878906 133.386719 29.398438 132.078125 C 29.917969 130.769531 30.496094 129.492188 31.136719 128.238281 C 31.773438 126.984375 32.472656 125.765625 33.226562 124.578125 C 33.980469 123.390625 34.789062 122.238281 35.648438 121.128906 C 36.511719 120.015625 37.425781 118.949219 38.386719 117.921875 C 39.351562 116.898438 40.359375 115.921875 41.417969 114.992188 C 42.472656 114.0625 43.570312 113.183594 44.707031 112.355469 C 45.84375 111.527344 47.019531 110.757812 48.230469 110.042969 C 49.441406 109.324219 50.683594 108.667969 51.957031 108.070312 C 53.230469 107.472656 54.527344 106.933594 55.851562 106.457031 C 57.175781 105.980469 58.519531 105.566406 59.878906 105.21875 C 61.242188 104.867188 62.617188 104.582031 64.007812 104.363281 C 65.398438 104.144531 66.792969 103.988281 68.199219 103.902344 L 75.3125 103.351562 L 75.3125 96.238281 C 75.3125 94.410156 75.386719 92.589844 75.53125 90.765625 C 75.679688 88.945312 75.902344 87.132812 76.195312 85.328125 C 76.488281 83.527344 76.855469 81.738281 77.292969 79.964844 C 77.730469 78.191406 78.238281 76.4375 78.820312 74.703125 C 79.398438 72.972656 80.046875 71.265625 80.765625 69.585938 C 81.484375 67.90625 82.269531 66.257812 83.117188 64.640625 C 83.96875 63.023438 84.886719 61.441406 85.863281 59.898438 C 86.84375 58.359375 87.882812 56.855469 88.980469 55.398438 C 90.082031 53.9375 91.238281 52.527344 92.453125 51.160156 C 93.667969 49.796875 94.933594 48.480469 96.253906 47.21875 C 97.574219 45.957031 98.945312 44.75 100.363281 43.597656 C 101.78125 42.445312 103.242188 41.351562 104.75 40.316406 C 106.253906 39.28125 107.800781 38.3125 109.386719 37.402344 C 110.96875 36.492188 112.589844 35.648438 114.242188 34.871094 C 115.894531 34.09375 117.578125 33.382812 119.289062 32.738281 C 121 32.097656 122.730469 31.523438 124.488281 31.023438 C 126.246094 30.519531 128.019531 30.089844 129.8125 29.730469 C 131.601562 29.371094 133.40625 29.085938 135.21875 28.871094 C 137.035156 28.660156 138.855469 28.519531 140.679688 28.453125 C 142.507812 28.386719 144.332031 28.394531 146.15625 28.476562 C 147.984375 28.558594 149.800781 28.714844 151.613281 28.941406 C 153.425781 29.171875 155.226562 29.472656 157.015625 29.84375 C 158.804688 30.21875 160.574219 30.664062 162.328125 31.183594 C 164.082031 31.699219 165.808594 32.285156 167.515625 32.941406 C 169.21875 33.601562 170.894531 34.324219 172.539062 35.117188 C 174.1875 35.910156 175.800781 36.765625 177.375 37.6875 C 178.953125 38.613281 180.492188 39.597656 181.988281 40.644531 C 183.484375 41.691406 184.9375 42.796875 186.347656 43.960938 C 187.753906 45.125 189.113281 46.34375 190.421875 47.617188 C 191.734375 48.890625 192.988281 50.214844 194.191406 51.589844 C 195.394531 52.964844 196.539062 54.386719 197.628906 55.855469 C 198.714844 57.324219 199.742188 58.832031 200.707031 60.386719 L 204.480469 66.40625 L 210.726562 63.027344 C 213.472656 61.53125 216.363281 60.398438 219.394531 59.628906 C 222.429688 58.863281 225.507812 58.484375 228.636719 58.496094 C 230.1875 58.5 231.730469 58.59375 233.269531 58.785156 C 234.808594 58.976562 236.328125 59.257812 237.832031 59.636719 C 239.335938 60.015625 240.8125 60.484375 242.257812 61.042969 C 243.703125 61.605469 245.109375 62.25 246.476562 62.984375 C 247.839844 63.714844 249.15625 64.53125 250.421875 65.425781 C 251.6875 66.320312 252.894531 67.289062 254.039062 68.335938 C 255.1875 69.378906 256.265625 70.488281 257.273438 71.664062 C 258.285156 72.84375 259.21875 74.078125 260.074219 75.367188 L 263.167969 80.03125 L 268.527344 78.425781 C 269.222656 78.214844 269.921875 78.046875 270.636719 77.921875 C 271.347656 77.792969 272.066406 77.707031 272.785156 77.664062 C 273.507812 77.621094 274.230469 77.621094 274.953125 77.660156 C 275.675781 77.703125 276.394531 77.785156 277.105469 77.90625 C 277.820312 78.03125 278.523438 78.199219 279.214844 78.40625 C 279.90625 78.609375 280.585938 78.855469 281.25 79.140625 C 281.917969 79.429688 282.5625 79.75 283.1875 80.113281 C 283.816406 80.472656 284.421875 80.867188 285 81.300781 C 285.582031 81.730469 286.136719 82.195312 286.660156 82.691406 C 287.1875 83.1875 287.683594 83.710938 288.148438 84.265625 C 288.617188 84.820312 289.046875 85.398438 289.445312 86.003906 C 289.84375 86.605469 290.203125 87.230469 290.53125 87.878906 C 290.855469 88.523438 291.140625 89.1875 291.386719 89.867188 C 291.636719 90.546875 291.84375 91.238281 292.011719 91.941406 C 292.175781 92.648438 292.304688 93.359375 292.386719 94.078125 C 292.472656 94.792969 292.511719 95.515625 292.511719 96.238281 L 292.511719 103.789062 L 306.101562 103.789062 C 307.566406 103.789062 309.027344 103.859375 310.488281 104.003906 C 311.945312 104.148438 313.394531 104.363281 314.832031 104.648438 C 316.269531 104.933594 317.691406 105.289062 319.09375 105.714844 C 320.496094 106.140625 321.875 106.632812 323.230469 107.195312 C 324.582031 107.753906 325.90625 108.382812 327.199219 109.074219 C 328.492188 109.765625 329.75 110.515625 330.96875 111.332031 C 332.1875 112.144531 333.363281 113.019531 334.496094 113.949219 C 335.628906 114.878906 336.714844 115.859375 337.75 116.898438 C 338.789062 117.933594 339.769531 119.019531 340.699219 120.152344 C 341.628906 121.285156 342.503906 122.460938 343.316406 123.679688 C 344.132812 124.898438 344.882812 126.15625 345.574219 127.449219 C 346.265625 128.742188 346.894531 130.066406 347.453125 131.417969 C 348.015625 132.773438 348.507812 134.152344 348.933594 135.554688 C 349.359375 136.957031 349.714844 138.378906 350 139.816406 C 350.285156 141.253906 350.5 142.703125 350.644531 144.160156 C 350.789062 145.621094 350.859375 147.082031 350.859375 148.546875 C 350.859375 150.015625 350.789062 151.476562 350.644531 152.9375 C 350.5 154.394531 350.285156 155.84375 350 157.28125 C 349.714844 158.71875 349.359375 160.140625 348.933594 161.542969 C 348.507812 162.945312 348.015625 164.324219 347.453125 165.679688 C 346.894531 167.03125 346.265625 168.355469 345.574219 169.648438 C 344.882812 170.941406 344.132812 172.199219 343.316406 173.417969 C 342.503906 174.636719 341.628906 175.8125 340.699219 176.945312 C 339.769531 178.078125 338.789062 179.164062 337.75 180.199219 C 336.714844 181.234375 335.628906 182.21875 334.496094 183.148438 C 333.363281 184.078125 332.1875 184.953125 330.96875 185.765625 C 329.75 186.582031 328.492188 187.332031 327.199219 188.023438 C 325.90625 188.714844 324.582031 189.339844 323.230469 189.902344 C 321.875 190.464844 320.496094 190.957031 319.09375 191.382812 C 317.691406 191.808594 316.269531 192.164062 314.832031 192.449219 C 313.394531 192.734375 311.945312 192.949219 310.488281 193.09375 C 309.027344 193.238281 307.566406 193.308594 306.101562 193.308594 L 71.011719 193.308594 C 69.542969 193.308594 68.082031 193.234375 66.625 193.089844 C 65.164062 192.945312 63.71875 192.726562 62.28125 192.441406 C 60.84375 192.152344 59.425781 191.796875 58.023438 191.371094 C 56.621094 190.941406 55.242188 190.449219 53.890625 189.886719 C 52.535156 189.324219 51.214844 188.699219 49.921875 188.007812 C 48.628906 187.316406 47.375 186.5625 46.15625 185.75 C 44.9375 184.933594 43.761719 184.0625 42.628906 183.132812 C 41.496094 182.203125 40.410156 181.21875 39.375 180.183594 C 38.339844 179.148438 37.355469 178.0625 36.425781 176.929688 C 35.496094 175.796875 34.625 174.621094 33.808594 173.402344 C 32.996094 172.183594 32.242188 170.929688 31.550781 169.636719 C 30.859375 168.34375 30.234375 167.023438 29.671875 165.667969 C 29.109375 164.316406 28.617188 162.9375 28.1875 161.535156 C 27.761719 160.132812 27.40625 158.714844 27.117188 157.277344 C 26.832031 155.839844 26.613281 154.390625 26.46875 152.933594 C 26.324219 151.476562 26.25 150.015625 26.25 148.546875 Z M 26.25 148.546875 " clip-rule="nonzero"/></clipPath><linearGradient x1="0.016104" gradientTransform="matrix(1.887062, 0, 0, 1.887062, 11.152255, 13.32169)" y1="94" x2="188.180755" gradientUnits="userSpaceOnUse" y2="94" id="c0ab890229"><stop stop-opacity="1" stop-color="rgb(99.598694%, 81.599426%, 41.197205%)" offset="0"/><stop stop-opacity="1" stop-color="rgb(99.578857%, 81.547546%, 41.070557%)" offset="0.015625"/><stop stop-opacity="1" stop-color="rgb(99.54071%, 81.445312%, 40.818787%)" offset="0.03125"/><stop stop-opacity="1" stop-color="rgb(99.502563%, 81.343079%, 40.567017%)" offset="0.046875"/><stop stop-opacity="1" stop-color="rgb(99.464417%, 81.240845%, 40.315247%)" offset="0.0625"/><stop stop-opacity="1" stop-color="rgb(99.42627%, 81.138611%, 40.061951%)" offset="0.078125"/><stop stop-opacity="1" stop-color="rgb(99.388123%, 81.036377%, 39.810181%)" offset="0.09375"/><stop stop-opacity="1" stop-color="rgb(99.349976%, 80.934143%, 39.558411%)" offset="0.109375"/><stop stop-opacity="1" stop-color="rgb(99.311829%, 80.831909%, 39.306641%)" offset="0.125"/><stop stop-opacity="1" stop-color="rgb(99.272156%, 80.729675%, 39.054871%)" offset="0.140625"/><stop stop-opacity="1" stop-color="rgb(99.234009%, 80.627441%, 38.801575%)" offset="0.15625"/><stop stop-opacity="1" stop-color="rgb(99.195862%, 80.525208%, 38.549805%)" offset="0.171875"/><stop stop-opacity="1" stop-color="rgb(99.157715%, 80.422974%, 38.298035%)" offset="0.1875"/><stop stop-opacity="1" stop-color="rgb(99.119568%, 80.32074%, 38.046265%)" offset="0.203125"/><stop stop-opacity="1" stop-color="rgb(99.081421%, 80.218506%, 37.792969%)" offset="0.21875"/><stop stop-opacity="1" stop-color="rgb(99.043274%, 80.117798%, 37.541199%)" offset="0.234375"/><stop stop-opacity="1" stop-color="rgb(99.005127%, 80.015564%, 37.289429%)" offset="0.25"/><stop stop-opacity="1" stop-color="rgb(98.96698%, 79.91333%, 37.037659%)" offset="0.265625"/><stop stop-opacity="1" stop-color="rgb(98.928833%, 79.811096%, 36.784363%)" offset="0.28125"/><stop stop-opacity="1" stop-color="rgb(98.88916%, 79.708862%, 36.532593%)" offset="0.296875"/><stop stop-opacity="1" stop-color="rgb(98.851013%, 79.606628%, 36.280823%)" offset="0.3125"/><stop stop-opacity="1" stop-color="rgb(98.812866%, 79.504395%, 36.029053%)" offset="0.328125"/><stop stop-opacity="1" stop-color="rgb(98.774719%, 79.402161%, 35.775757%)" offset="0.34375"/><stop stop-opacity="1" stop-color="rgb(98.736572%, 79.299927%, 35.523987%)" offset="0.359375"/><stop stop-opacity="1" stop-color="rgb(98.698425%, 79.197693%, 35.272217%)" offset="0.375"/><stop stop-opacity="1" stop-color="rgb(98.660278%, 79.095459%, 35.020447%)" offset="0.390625"/><stop stop-opacity="1" stop-color="rgb(98.622131%, 78.993225%, 34.767151%)" offset="0.40625"/><stop stop-opacity="1" stop-color="rgb(98.583984%, 78.890991%, 34.515381%)" offset="0.421875"/><stop stop-opacity="1" stop-color="rgb(98.545837%, 78.788757%, 34.263611%)" offset="0.4375"/><stop stop-opacity="1" stop-color="rgb(98.506165%, 78.686523%, 34.011841%)" offset="0.453125"/><stop stop-opacity="1" stop-color="rgb(98.468018%, 78.585815%, 33.760071%)" offset="0.46875"/><stop stop-opacity="1" stop-color="rgb(98.435974%, 78.500366%, 33.547974%)" offset="0.5"/><stop stop-opacity="1" stop-color="rgb(98.442078%, 78.514099%, 33.583069%)" offset="0.515625"/><stop stop-opacity="1" stop-color="rgb(98.478699%, 78.611755%, 33.825684%)" offset="0.53125"/><stop stop-opacity="1" stop-color="rgb(98.51532%, 78.710938%, 34.066772%)" offset="0.546875"/><stop stop-opacity="1" stop-color="rgb(98.551941%, 78.808594%, 34.309387%)" offset="0.5625"/><stop stop-opacity="1" stop-color="rgb(98.590088%, 78.90625%, 34.552002%)" offset="0.578125"/><stop stop-opacity="1" stop-color="rgb(98.626709%, 79.005432%, 34.794617%)" offset="0.59375"/><stop stop-opacity="1" stop-color="rgb(98.66333%, 79.103088%, 35.035706%)" offset="0.609375"/><stop stop-opacity="1" stop-color="rgb(98.699951%, 79.200745%, 35.27832%)" offset="0.625"/><stop stop-opacity="1" stop-color="rgb(98.736572%, 79.298401%, 35.520935%)" offset="0.640625"/><stop stop-opacity="1" stop-color="rgb(98.773193%, 79.397583%, 35.76355%)" offset="0.65625"/><stop stop-opacity="1" stop-color="rgb(98.809814%, 79.495239%, 36.004639%)" offset="0.671875"/><stop stop-opacity="1" stop-color="rgb(98.846436%, 79.592896%, 36.247253%)" offset="0.6875"/><stop stop-opacity="1" stop-color="rgb(98.884583%, 79.692078%, 36.489868%)" offset="0.703125"/><stop stop-opacity="1" stop-color="rgb(98.921204%, 79.789734%, 36.732483%)" offset="0.71875"/><stop stop-opacity="1" stop-color="rgb(98.957825%, 79.88739%, 36.973572%)" offset="0.734375"/><stop stop-opacity="1" stop-color="rgb(98.994446%, 79.986572%, 37.216187%)" offset="0.75"/><stop stop-opacity="1" stop-color="rgb(99.031067%, 80.084229%, 37.458801%)" offset="0.765625"/><stop stop-opacity="1" stop-color="rgb(99.067688%, 80.181885%, 37.701416%)" offset="0.78125"/><stop stop-opacity="1" stop-color="rgb(99.104309%, 80.281067%, 37.942505%)" offset="0.796875"/><stop stop-opacity="1" stop-color="rgb(99.14093%, 80.378723%, 38.18512%)" offset="0.8125"/><stop stop-opacity="1" stop-color="rgb(99.177551%, 80.476379%, 38.427734%)" offset="0.828125"/><stop stop-opacity="1" stop-color="rgb(99.215698%, 80.574036%, 38.670349%)" offset="0.84375"/><stop stop-opacity="1" stop-color="rgb(99.252319%, 80.673218%, 38.912964%)" offset="0.859375"/><stop stop-opacity="1" stop-color="rgb(99.28894%, 80.770874%, 39.154053%)" offset="0.875"/><stop stop-opacity="1" stop-color="rgb(99.325562%, 80.86853%, 39.396667%)" offset="0.890625"/><stop stop-opacity="1" stop-color="rgb(99.362183%, 80.967712%, 39.639282%)" offset="0.90625"/><stop stop-opacity="1" stop-color="rgb(99.398804%, 81.065369%, 39.881897%)" offset="0.921875"/><stop stop-opacity="1" stop-color="rgb(99.435425%, 81.163025%, 40.122986%)" offset="0.9375"/><stop stop-opacity="1" stop-color="rgb(99.472046%, 81.262207%, 40.365601%)" offset="0.953125"/><stop stop-opacity="1" stop-color="rgb(99.508667%, 81.359863%, 40.608215%)" offset="0.96875"/><stop stop-opacity="1" stop-color="rgb(99.546814%, 81.45752%, 40.85083%)" offset="0.984375"/><stop stop-opacity="1" stop-color="rgb(99.581909%, 81.55365%, 41.08429%)" offset="1"/></linearGradient></defs><g clip-path="url(#ce6e940968)"><g clip-path="url(#6279f92721)"><path fill="url(#c0ab890229)" d="M 11.183594 13.28125 L 11.183594 368.132812 L 366.261719 368.132812 L 366.261719 13.28125 Z M 11.183594 13.28125 " fill-rule="nonzero"/></g></g></svg>