<svg xmlns="http://www.w3.org/2000/svg" xmlns:xlink="http://www.w3.org/1999/xlink" width="500" zoomAndPan="magnify" viewBox="0 0 375 374.999991" height="500" preserveAspectRatio="xMidYMid meet" version="1.0"><defs><clipPath id="11753456ed"><path d="M 25.792969 11.011719 L 349.042969 11.011719 L 349.042969 364 L 25.792969 364 Z M 25.792969 11.011719 " clip-rule="nonzero"/></clipPath></defs><g clip-path="url(#11753456ed)"><path fill="#fed069" d="M 263.699219 168.019531 C 273.128906 170.261719 282.140625 174.003906 290.394531 179.085938 L 305.398438 172.421875 C 306.839844 171.78125 308.445312 172.082031 309.558594 173.195312 L 326.375 190.011719 C 327.492188 191.128906 327.789062 192.730469 327.148438 194.171875 L 320.488281 209.171875 C 325.574219 217.425781 329.3125 226.4375 331.558594 235.875 L 346.859375 241.765625 C 348.332031 242.332031 349.253906 243.675781 349.253906 245.253906 L 349.253906 269.035156 C 349.253906 270.613281 348.332031 271.957031 346.859375 272.523438 L 331.554688 278.414062 C 329.308594 287.847656 325.570312 296.855469 320.484375 305.109375 L 327.148438 320.113281 C 327.789062 321.554688 327.492188 323.160156 326.375 324.273438 L 309.558594 341.089844 C 308.445312 342.207031 306.839844 342.503906 305.398438 341.863281 L 290.402344 335.203125 C 282.144531 340.289062 273.132812 344.027344 263.699219 346.273438 L 257.808594 361.574219 C 257.242188 363.046875 255.894531 363.972656 254.320312 363.972656 L 230.539062 363.972656 C 228.960938 363.972656 227.617188 363.046875 227.050781 361.574219 L 221.15625 346.269531 C 211.726562 344.023438 202.714844 340.285156 194.460938 335.199219 L 179.460938 341.863281 C 178.019531 342.503906 176.414062 342.207031 175.296875 341.089844 L 158.484375 324.273438 C 157.367188 323.160156 157.070312 321.554688 157.710938 320.113281 L 164.371094 305.117188 C 159.285156 296.859375 155.546875 287.847656 153.300781 278.414062 L 137.996094 272.523438 C 136.523438 271.957031 135.601562 270.613281 135.601562 269.035156 L 135.601562 245.253906 C 135.601562 243.675781 136.523438 242.332031 137.996094 241.765625 L 153.304688 235.875 C 155.546875 226.441406 159.289062 217.429688 164.371094 209.175781 L 157.710938 194.175781 C 157.070312 192.734375 157.367188 191.128906 158.484375 190.011719 L 175.296875 173.199219 C 176.414062 172.082031 178.019531 171.785156 179.460938 172.425781 L 194.460938 179.085938 C 202.71875 174.003906 211.726562 170.265625 221.160156 168.019531 L 227.050781 152.710938 C 227.617188 151.238281 228.960938 150.316406 230.539062 150.316406 L 254.320312 150.316406 C 255.898438 150.316406 257.242188 151.238281 257.808594 152.710938 Z M 131.132812 69.902344 C 161.300781 69.902344 188.480469 66.054688 208.03125 59.832031 C 225.585938 54.242188 236.445312 47.34375 236.445312 40.460938 C 236.445312 33.578125 225.585938 26.679688 208.03125 21.089844 C 188.480469 14.867188 161.300781 11.019531 131.132812 11.019531 C 100.960938 11.019531 73.785156 14.867188 54.234375 21.09375 C 36.675781 26.679688 25.820312 33.578125 25.820312 40.460938 C 25.820312 47.347656 36.679688 54.242188 54.234375 59.832031 C 73.785156 66.054688 100.960938 69.902344 131.132812 69.902344 Z M 131.132812 225.84375 C 99.835938 225.84375 71.363281 221.765625 50.632812 215.167969 C 40.464844 211.929688 32.03125 207.976562 25.816406 203.457031 L 25.816406 256.429688 C 25.816406 263.3125 36.675781 270.210938 54.234375 275.800781 C 73.785156 282.023438 100.960938 285.871094 131.132812 285.871094 C 133.820312 285.871094 136.488281 285.839844 139.128906 285.78125 L 133.695312 283.691406 C 127.605469 281.347656 123.632812 275.5625 123.632812 269.035156 L 123.632812 245.253906 C 123.632812 238.730469 127.605469 232.945312 133.695312 230.601562 L 143.347656 226.882812 C 143.476562 226.464844 143.609375 226.042969 143.742188 225.625 C 139.601562 225.769531 135.390625 225.84375 131.132812 225.84375 Z M 54.53125 232.390625 C 62.472656 232.390625 68.914062 238.828125 68.914062 246.773438 C 68.914062 254.71875 62.472656 261.15625 54.53125 261.15625 C 46.585938 261.15625 40.144531 254.71875 40.144531 246.773438 C 40.144531 238.828125 46.585938 232.390625 54.53125 232.390625 Z M 211.628906 143.175781 C 190.898438 149.773438 162.429688 153.855469 131.132812 153.855469 C 99.835938 153.855469 71.363281 149.773438 50.632812 143.175781 C 40.464844 139.941406 32.035156 135.984375 25.820312 131.46875 L 25.820312 184.441406 C 25.820312 191.324219 36.675781 198.222656 54.234375 203.808594 C 73.785156 210.03125 100.960938 213.882812 131.132812 213.882812 C 137.050781 213.882812 142.851562 213.734375 148.503906 213.449219 C 149.28125 211.777344 150.105469 210.121094 150.976562 208.492188 L 146.773438 199.03125 C 144.136719 193.097656 145.429688 186.144531 150.019531 181.554688 L 166.835938 164.738281 C 171.425781 160.148438 178.382812 158.855469 184.3125 161.492188 L 193.777344 165.691406 C 199.644531 162.566406 205.804688 160.011719 212.167969 158.066406 L 215.882812 148.414062 C 218.226562 142.324219 224.011719 138.351562 230.539062 138.351562 L 236.445312 138.351562 L 236.445312 131.46875 C 230.230469 135.984375 221.800781 139.941406 211.628906 143.175781 Z M 54.53125 159.660156 C 62.472656 159.660156 68.914062 166.101562 68.914062 174.042969 C 68.914062 181.988281 62.472656 188.429688 54.53125 188.429688 C 46.585938 188.429688 40.144531 181.988281 40.144531 174.042969 C 40.144531 166.101562 46.585938 159.660156 54.53125 159.660156 Z M 236.445312 112.449219 C 236.445312 119.335938 225.585938 126.234375 208.03125 131.820312 C 188.480469 138.042969 161.300781 141.890625 131.132812 141.890625 C 100.960938 141.890625 73.785156 138.042969 54.234375 131.820312 C 36.679688 126.234375 25.820312 119.335938 25.820312 112.449219 L 25.820312 59.480469 C 32.035156 63.996094 40.464844 67.949219 50.632812 71.1875 C 71.363281 77.785156 99.835938 81.867188 131.132812 81.867188 C 162.429688 81.867188 190.898438 77.785156 211.628906 71.1875 C 221.800781 67.953125 230.230469 63.996094 236.445312 59.480469 Z M 54.53125 86.933594 C 46.585938 86.933594 40.144531 93.371094 40.144531 101.316406 C 40.144531 109.261719 46.585938 115.699219 54.53125 115.699219 C 62.472656 115.699219 68.914062 109.257812 68.914062 101.316406 C 68.914062 93.371094 62.472656 86.933594 54.53125 86.933594 Z M 225.746094 271.632812 L 208.554688 257.144531 L 225.746094 242.65625 C 228.265625 240.539062 228.589844 236.78125 226.472656 234.265625 C 224.355469 231.75 220.601562 231.425781 218.082031 233.542969 L 195.542969 252.535156 C 195.261719 252.765625 195 253.023438 194.757812 253.3125 C 192.640625 255.828125 192.964844 259.582031 195.480469 261.699219 L 218.082031 280.746094 C 220.597656 282.863281 224.355469 282.539062 226.472656 280.019531 C 228.589844 277.503906 228.265625 273.75 225.746094 271.632812 Z M 266.773438 280.746094 L 289.371094 261.699219 C 291.890625 259.582031 292.214844 255.828125 290.097656 253.3125 C 289.855469 253.023438 289.589844 252.765625 289.3125 252.535156 L 266.773438 233.542969 C 264.257812 231.425781 260.5 231.75 258.382812 234.265625 C 256.265625 236.78125 256.589844 240.539062 259.109375 242.65625 L 276.300781 257.144531 L 259.109375 271.632812 C 256.59375 273.75 256.265625 277.503906 258.382812 280.019531 C 260.5 282.539062 264.257812 282.863281 266.773438 280.746094 Z M 255.132812 281.484375 L 241.265625 229.71875 C 240.414062 226.53125 237.136719 224.636719 233.949219 225.488281 C 230.761719 226.339844 228.867188 229.617188 229.71875 232.804688 L 243.589844 284.570312 C 244.441406 287.757812 247.71875 289.648438 250.90625 288.796875 C 254.09375 287.945312 255.984375 284.671875 255.132812 281.484375 Z M 242.425781 196.683594 C 209.035156 196.683594 181.96875 223.75 181.96875 257.144531 C 181.96875 290.535156 209.035156 317.601562 242.425781 317.601562 C 275.820312 317.601562 302.886719 290.535156 302.886719 257.144531 C 302.886719 223.75 275.820312 196.683594 242.425781 196.683594 Z M 242.425781 196.683594 " fill-opacity="1" fill-rule="evenodd"/></g></svg>