<svg xmlns="http://www.w3.org/2000/svg" xmlns:xlink="http://www.w3.org/1999/xlink" width="500" zoomAndPan="magnify" viewBox="0 0 375 374.999991" height="500" preserveAspectRatio="xMidYMid meet" version="1.0"><defs><clipPath id="0df3ef28b3"><path d="M 30.335938 30.335938 L 344.585938 30.335938 L 344.585938 344.585938 L 30.335938 344.585938 Z M 30.335938 30.335938 " clip-rule="nonzero"/></clipPath></defs><g clip-path="url(#0df3ef28b3)"><path fill="#fed069" d="M 339.976562 161.921875 L 333.371094 161.921875 C 328.046875 161.921875 323.441406 158.386719 322.15625 153.351562 C 318.867188 140.3125 313.726562 127.917969 306.796875 116.382812 C 304.152344 111.953125 304.902344 106.308594 308.617188 102.59375 L 313.402344 97.773438 C 315.226562 95.953125 315.226562 92.988281 313.402344 91.164062 L 283.828125 61.589844 C 282.007812 59.769531 279.042969 59.769531 277.222656 61.589844 L 272.398438 66.375 C 268.71875 70.089844 263.042969 70.839844 258.613281 68.199219 C 247.109375 61.304688 234.714844 56.125 221.644531 52.839844 C 216.609375 51.554688 213.070312 46.945312 213.070312 41.625 L 213.070312 35.015625 C 213.070312 32.410156 211 30.335938 208.390625 30.335938 L 166.566406 30.335938 C 163.957031 30.335938 161.886719 32.410156 161.886719 35.015625 L 161.886719 41.625 C 161.886719 46.945312 158.351562 51.554688 153.316406 52.839844 C 140.277344 56.125 127.882812 61.269531 116.347656 68.199219 C 111.917969 70.839844 106.273438 70.089844 102.558594 66.375 L 97.738281 61.589844 C 95.914062 59.769531 92.949219 59.769531 91.128906 61.589844 L 61.554688 91.164062 C 59.734375 92.988281 59.734375 95.953125 61.554688 97.773438 L 66.339844 102.59375 C 70.054688 106.273438 70.804688 111.953125 68.164062 116.382812 C 61.269531 127.882812 56.089844 140.277344 52.804688 153.351562 C 51.519531 158.386719 46.910156 161.921875 41.589844 161.921875 L 34.980469 161.921875 C 32.371094 161.921875 30.300781 163.996094 30.300781 166.601562 L 30.300781 208.429688 C 30.300781 211.035156 32.371094 213.105469 34.980469 213.105469 L 47.910156 213.105469 C 49.625 213.105469 51.125 214.320312 51.480469 216.035156 C 54.625 231.144531 60.269531 245.46875 68.164062 258.648438 C 70.804688 263.078125 70.054688 268.71875 66.339844 272.433594 L 61.554688 277.257812 C 59.734375 279.078125 59.734375 282.042969 61.554688 283.863281 L 91.128906 313.441406 C 92.949219 315.261719 95.914062 315.261719 97.738281 313.441406 L 102.558594 308.652344 C 104.773438 306.4375 107.703125 305.261719 110.632812 305.261719 C 112.597656 305.261719 114.597656 305.761719 116.347656 306.832031 C 127.847656 313.726562 140.242188 318.90625 153.316406 322.191406 C 158.351562 323.476562 161.886719 328.085938 161.886719 333.40625 L 161.886719 340.015625 C 161.886719 342.621094 163.957031 344.691406 166.566406 344.691406 L 208.390625 344.691406 C 211 344.691406 213.070312 342.621094 213.070312 340.015625 L 213.070312 333.40625 C 213.070312 328.085938 216.609375 323.476562 221.644531 322.191406 C 234.679688 318.90625 247.074219 313.761719 258.613281 306.832031 C 263.042969 304.1875 268.683594 304.9375 272.398438 308.652344 L 277.222656 313.441406 C 279.042969 315.261719 282.007812 315.261719 283.828125 313.441406 L 313.402344 283.863281 C 315.226562 282.042969 315.226562 279.078125 313.402344 277.257812 L 308.617188 272.433594 C 304.902344 268.757812 304.152344 263.078125 306.796875 258.648438 C 313.691406 247.148438 318.867188 234.753906 322.15625 221.679688 C 323.441406 216.644531 328.046875 213.105469 333.371094 213.105469 L 339.976562 213.105469 C 342.585938 213.105469 344.65625 211.035156 344.65625 208.429688 L 344.65625 166.601562 C 344.65625 163.996094 342.585938 161.921875 339.976562 161.921875 Z M 187.496094 297.152344 C 127.0625 297.152344 77.84375 247.96875 77.84375 187.496094 C 77.84375 127.027344 127.027344 77.84375 187.496094 77.84375 C 247.96875 77.84375 297.152344 127.027344 297.152344 187.496094 C 297.152344 247.96875 247.96875 297.152344 187.496094 297.152344 Z M 187.496094 297.152344 " fill-opacity="1" fill-rule="nonzero"/></g><path fill="#fed069" d="M 236.824219 150.957031 C 217.5 150.957031 204.25 164.460938 191.496094 177.496094 L 190.070312 178.925781 C 188.710938 180.316406 186.246094 180.355469 184.890625 178.925781 L 182.996094 176.996094 C 171.03125 164.816406 157.53125 150.957031 140.3125 150.957031 C 119.632812 150.957031 103.453125 166.996094 103.453125 187.496094 C 103.453125 209.035156 117.738281 224.035156 138.171875 224.035156 C 157.492188 224.035156 170.746094 210.535156 183.496094 197.5 L 184.925781 196.070312 C 185.570312 195.355469 186.53125 194.960938 187.53125 194.960938 C 188.53125 194.960938 189.460938 195.320312 190.140625 196.070312 L 191.996094 197.960938 C 203.964844 210.179688 217.464844 224.035156 234.714844 224.035156 C 255.398438 224.035156 271.578125 208 271.578125 187.496094 C 271.578125 165.960938 257.289062 150.957031 236.859375 150.957031 Z M 174.960938 189.996094 L 174.210938 190.855469 C 164.886719 200.75 153.351562 213.105469 138.457031 213.105469 C 124.742188 213.105469 114.417969 202.105469 114.417969 187.53125 C 114.417969 172.960938 125.527344 161.957031 139.207031 161.957031 C 152.886719 161.957031 161.746094 171.601562 170.101562 180.175781 C 171.710938 181.816406 173.28125 183.425781 174.851562 184.925781 C 176.316406 186.320312 176.351562 188.570312 174.996094 190.035156 Z M 235.824219 213.105469 C 222.75 213.105469 213.285156 203.425781 204.890625 194.890625 C 203.320312 193.246094 201.75 191.640625 200.175781 190.140625 C 198.710938 188.746094 198.675781 186.460938 200.035156 184.996094 L 200.855469 184.140625 C 210.140625 174.246094 221.679688 161.921875 236.574219 161.921875 C 250.289062 161.921875 260.613281 172.925781 260.613281 187.496094 C 260.613281 202.070312 249.503906 213.070312 235.824219 213.070312 Z M 235.824219 213.105469 " fill-opacity="1" fill-rule="nonzero"/></svg>