<svg xmlns="http://www.w3.org/2000/svg" xmlns:xlink="http://www.w3.org/1999/xlink" width="500" zoomAndPan="magnify" viewBox="0 0 375 374.999991" height="500" preserveAspectRatio="xMidYMid meet" version="1.0"><path fill="#fed069" d="M 187.496094 92.601562 C 134.261719 92.601562 90.941406 135.90625 90.941406 189.144531 C 90.941406 242.382812 134.246094 285.703125 187.480469 285.703125 C 240.71875 285.703125 284.039062 242.398438 284.039062 189.144531 C 284.039062 135.90625 240.734375 92.601562 187.496094 92.601562 Z M 187.496094 293.847656 C 129.765625 293.847656 82.792969 246.886719 82.792969 189.144531 C 82.792969 131.414062 129.753906 84.441406 187.496094 84.441406 C 245.226562 84.441406 292.203125 131.402344 292.203125 189.144531 C 292.203125 246.875 245.238281 293.847656 187.496094 293.847656 Z M 187.496094 293.847656 " fill-opacity="1" fill-rule="evenodd"/><path fill="#fed069" d="M 187.496094 115.007812 C 146.625 115.007812 113.363281 148.257812 113.363281 189.144531 C 113.363281 230.019531 146.613281 263.269531 187.484375 263.269531 C 228.359375 263.269531 261.609375 230.019531 261.609375 189.144531 C 261.609375 148.269531 228.359375 115.007812 187.484375 115.007812 Z M 187.496094 271.417969 C 142.128906 271.417969 105.210938 234.511719 105.210938 189.148438 C 105.210938 143.785156 142.117188 106.863281 187.496094 106.863281 C 232.863281 106.863281 269.769531 143.769531 269.769531 189.148438 C 269.769531 234.515625 232.863281 271.417969 187.496094 271.417969 Z M 187.496094 271.417969 " fill-opacity="1" fill-rule="evenodd"/><path fill="#fed069" d="M 92.042969 161.273438 C 67.75 161.273438 47.980469 141.503906 47.980469 117.210938 L 47.980469 88.515625 C 47.980469 86.253906 49.792969 84.441406 52.054688 84.441406 C 54.300781 84.441406 56.128906 86.253906 56.128906 88.515625 L 56.128906 117.210938 C 56.128906 137.011719 72.242188 153.125 92.042969 153.125 C 94.289062 153.125 96.117188 154.953125 96.117188 157.199219 C 96.117188 159.445312 94.289062 161.273438 92.042969 161.273438 Z M 92.042969 161.273438 " fill-opacity="1" fill-rule="evenodd"/><path fill="#fed069" d="M 282.953125 161.273438 C 280.691406 161.273438 278.878906 159.445312 278.878906 157.199219 C 278.878906 154.953125 280.691406 153.125 282.953125 153.125 C 302.753906 153.125 318.867188 137.011719 318.867188 117.210938 L 318.867188 88.515625 C 318.867188 86.253906 320.695312 84.441406 322.941406 84.441406 C 325.1875 84.441406 327.015625 86.253906 327.015625 88.515625 L 327.015625 117.210938 C 327.015625 141.503906 307.246094 161.269531 282.953125 161.269531 Z M 282.953125 161.273438 " fill-opacity="1" fill-rule="evenodd"/><path fill="#fed069" d="M 322.929688 293.847656 C 320.683594 293.847656 318.855469 292.019531 318.855469 289.773438 L 318.855469 261.078125 C 318.855469 241.277344 302.742188 225.164062 282.941406 225.164062 C 280.679688 225.164062 278.867188 223.335938 278.867188 221.089844 C 278.867188 218.84375 280.679688 217.015625 282.941406 217.015625 C 307.234375 217.015625 327.003906 236.785156 327.003906 261.078125 L 327.003906 289.773438 C 327.003906 292.019531 325.175781 293.847656 322.929688 293.847656 Z M 322.929688 293.847656 " fill-opacity="1" fill-rule="evenodd"/><path fill="#fed069" d="M 52.066406 293.847656 C 49.804688 293.847656 47.992188 292.019531 47.992188 289.773438 L 47.992188 261.078125 C 47.992188 236.785156 67.761719 217.015625 92.054688 217.015625 C 94.300781 217.015625 96.128906 218.84375 96.128906 221.09375 C 96.128906 223.339844 94.300781 225.167969 92.054688 225.167969 C 72.253906 225.167969 56.140625 241.28125 56.140625 261.082031 L 56.140625 289.773438 C 56.140625 292.023438 54.3125 293.851562 52.066406 293.851562 Z M 52.066406 293.847656 " fill-opacity="1" fill-rule="evenodd"/><path fill="#fed069" d="M 322.929688 65.472656 C 317.707031 65.472656 313.449219 69.734375 313.449219 74.953125 C 313.449219 80.175781 317.691406 84.4375 322.929688 84.4375 C 328.167969 84.4375 332.410156 80.175781 332.410156 74.953125 C 332.410156 69.71875 328.152344 65.472656 322.929688 65.472656 Z M 322.929688 92.585938 C 313.199219 92.585938 305.296875 84.667969 305.296875 74.953125 C 305.296875 65.226562 313.214844 57.324219 322.929688 57.324219 C 332.660156 57.324219 340.5625 65.242188 340.5625 74.953125 C 340.5625 84.683594 332.644531 92.585938 322.929688 92.585938 Z M 322.929688 92.585938 " fill-opacity="1" fill-rule="evenodd"/><path fill="#fed069" d="M 334.316406 193.21875 L 288.128906 193.21875 C 285.882812 193.21875 284.054688 191.390625 284.054688 189.144531 C 284.054688 186.898438 285.882812 185.070312 288.128906 185.070312 L 334.316406 185.070312 C 336.578125 185.070312 338.390625 186.898438 338.390625 189.144531 C 338.390625 191.390625 336.578125 193.21875 334.316406 193.21875 Z M 334.316406 193.21875 " fill-opacity="1" fill-rule="evenodd"/><path fill="#fed069" d="M 86.867188 193.21875 L 40.667969 193.21875 C 38.417969 193.21875 36.59375 191.390625 36.59375 189.144531 C 36.59375 186.898438 38.421875 185.070312 40.667969 185.070312 L 86.867188 185.070312 C 89.113281 185.070312 90.941406 186.898438 90.941406 189.144531 C 90.941406 191.390625 89.113281 193.21875 86.867188 193.21875 Z M 86.867188 193.21875 " fill-opacity="1" fill-rule="evenodd"/><path fill="#fed069" d="M 347.875 179.660156 C 342.636719 179.660156 338.390625 183.921875 338.390625 189.144531 C 338.390625 194.378906 342.652344 198.625 347.875 198.625 C 353.109375 198.625 357.355469 194.363281 357.355469 189.144531 C 357.355469 183.90625 353.09375 179.660156 347.875 179.660156 Z M 347.875 206.773438 C 338.144531 206.773438 330.242188 198.855469 330.242188 189.144531 C 330.242188 179.414062 338.160156 171.511719 347.875 171.511719 C 357.605469 171.511719 365.503906 179.429688 365.503906 189.144531 C 365.503906 198.871094 357.589844 206.773438 347.875 206.773438 Z M 347.875 206.773438 " fill-opacity="1" fill-rule="evenodd"/><path fill="#fed069" d="M 27.136719 179.660156 C 21.902344 179.660156 17.65625 183.921875 17.65625 189.144531 C 17.65625 194.378906 21.917969 198.625 27.136719 198.625 C 32.359375 198.625 36.621094 194.363281 36.621094 189.144531 C 36.621094 183.90625 32.375 179.660156 27.136719 179.660156 Z M 27.136719 206.773438 C 17.410156 206.773438 9.507812 198.855469 9.507812 189.144531 C 9.507812 179.414062 17.425781 171.511719 27.136719 171.511719 C 36.867188 171.511719 44.769531 179.429688 44.769531 189.144531 C 44.769531 198.871094 36.867188 206.773438 27.136719 206.773438 Z M 27.136719 206.773438 " fill-opacity="1" fill-rule="evenodd"/><path fill="#fed069" d="M 187.496094 340.035156 C 185.25 340.035156 183.421875 338.207031 183.421875 335.960938 L 183.421875 289.761719 C 183.421875 287.515625 185.25 285.6875 187.496094 285.6875 C 189.742188 285.6875 191.570312 287.515625 191.570312 289.761719 L 191.570312 335.960938 C 191.570312 338.207031 189.742188 340.035156 187.496094 340.035156 Z M 187.496094 340.035156 " fill-opacity="1" fill-rule="evenodd"/><path fill="#fed069" d="M 187.496094 92.601562 C 185.25 92.601562 183.421875 90.773438 183.421875 88.527344 L 183.421875 42.328125 C 183.421875 40.082031 185.25 38.253906 187.496094 38.253906 C 189.742188 38.253906 191.570312 40.082031 191.570312 42.328125 L 191.570312 88.527344 C 191.570312 90.773438 189.742188 92.601562 187.496094 92.601562 Z M 187.496094 92.601562 " fill-opacity="1" fill-rule="evenodd"/><path fill="#fed069" d="M 187.496094 340.019531 C 182.277344 340.019531 178.015625 344.28125 178.015625 349.503906 C 178.015625 354.738281 182.277344 358.984375 187.496094 358.984375 C 192.734375 358.984375 196.980469 354.722656 196.980469 349.503906 C 196.980469 344.265625 192.71875 340.019531 187.496094 340.019531 Z M 187.496094 367.136719 C 177.78125 367.136719 169.867188 359.21875 169.867188 349.503906 C 169.867188 339.773438 177.78125 331.871094 187.496094 331.871094 C 197.226562 331.871094 205.128906 339.789062 205.128906 349.503906 C 205.128906 359.234375 197.210938 367.136719 187.496094 367.136719 Z M 187.496094 367.136719 " fill-opacity="1" fill-rule="evenodd"/><path fill="#fed069" d="M 187.496094 19.289062 C 182.277344 19.289062 178.015625 23.546875 178.015625 28.769531 C 178.015625 33.992188 182.277344 38.25 187.496094 38.25 C 192.734375 38.25 196.980469 33.992188 196.980469 28.769531 C 196.980469 23.53125 192.71875 19.289062 187.496094 19.289062 Z M 187.496094 46.402344 C 177.78125 46.402344 169.867188 38.5 169.867188 28.769531 C 169.867188 19.039062 177.78125 11.136719 187.496094 11.136719 C 197.226562 11.136719 205.128906 19.054688 205.128906 28.769531 C 205.128906 38.5 197.210938 46.402344 187.496094 46.402344 Z M 187.496094 46.402344 " fill-opacity="1" fill-rule="evenodd"/><path fill="#fed069" d="M 322.929688 293.847656 C 317.707031 293.847656 313.449219 298.109375 313.449219 303.332031 C 313.449219 308.566406 317.691406 312.8125 322.929688 312.8125 C 328.167969 312.8125 332.410156 308.550781 332.410156 303.332031 C 332.410156 298.09375 328.152344 293.847656 322.929688 293.847656 Z M 322.929688 320.960938 C 313.199219 320.960938 305.296875 313.046875 305.296875 303.332031 C 305.296875 293.601562 313.214844 285.699219 322.929688 285.699219 C 332.660156 285.699219 340.5625 293.617188 340.5625 303.332031 C 340.5625 313.0625 332.644531 320.960938 322.929688 320.960938 Z M 322.929688 320.960938 " fill-opacity="1" fill-rule="evenodd"/><path fill="#fed069" d="M 52.066406 293.847656 C 46.84375 293.847656 42.582031 298.109375 42.582031 303.332031 C 42.582031 308.566406 46.84375 312.8125 52.066406 312.8125 C 57.289062 312.8125 61.546875 308.550781 61.546875 303.332031 C 61.546875 298.09375 57.289062 293.847656 52.066406 293.847656 Z M 52.066406 320.960938 C 42.351562 320.960938 34.433594 313.046875 34.433594 303.332031 C 34.433594 293.601562 42.351562 285.699219 52.066406 285.699219 C 61.796875 285.699219 69.699219 293.617188 69.699219 303.332031 C 69.699219 313.0625 61.796875 320.960938 52.066406 320.960938 Z M 52.066406 320.960938 " fill-opacity="1" fill-rule="evenodd"/><path fill="#fed069" d="M 52.066406 65.472656 C 46.84375 65.472656 42.582031 69.734375 42.582031 74.953125 C 42.582031 80.175781 46.84375 84.4375 52.066406 84.4375 C 57.289062 84.4375 61.546875 80.175781 61.546875 74.953125 C 61.546875 69.71875 57.289062 65.472656 52.066406 65.472656 Z M 52.066406 92.585938 C 42.351562 92.585938 34.433594 84.667969 34.433594 74.953125 C 34.433594 65.226562 42.351562 57.324219 52.066406 57.324219 C 61.796875 57.324219 69.699219 65.242188 69.699219 74.953125 C 69.699219 84.683594 61.796875 92.585938 52.066406 92.585938 Z M 52.066406 92.585938 " fill-opacity="1" fill-rule="evenodd"/><path fill="#fed069" d="M 157.546875 189.777344 C 157.316406 189.777344 157.128906 189.964844 157.128906 190.199219 L 157.128906 233.175781 C 157.128906 233.410156 157.316406 233.59375 157.546875 233.59375 L 217.460938 233.59375 C 217.691406 233.59375 217.878906 233.410156 217.878906 233.175781 L 217.878906 190.199219 C 217.878906 189.964844 217.691406 189.777344 217.460938 189.777344 Z M 217.460938 241.757812 L 157.546875 241.757812 C 152.820312 241.757812 148.964844 237.914062 148.964844 233.175781 L 148.964844 190.195312 C 148.964844 185.453125 152.804688 181.613281 157.546875 181.613281 L 217.460938 181.613281 C 222.183594 181.613281 226.027344 185.453125 226.027344 190.195312 L 226.027344 233.175781 C 226.027344 237.898438 222.183594 241.757812 217.460938 241.757812 Z M 217.460938 241.757812 " fill-opacity="1" fill-rule="evenodd"/><path fill="#fed069" d="M 187.496094 202.113281 C 184.382812 202.113281 181.859375 204.640625 181.859375 207.753906 C 181.859375 210.867188 184.382812 213.394531 187.496094 213.394531 C 190.613281 213.394531 193.136719 210.867188 193.136719 207.753906 C 193.136719 204.640625 190.613281 202.113281 187.511719 202.113281 Z M 187.496094 221.527344 C 179.890625 221.527344 173.707031 215.347656 173.707031 207.738281 C 173.707031 200.128906 179.890625 193.949219 187.496094 193.949219 C 195.105469 193.949219 201.285156 200.128906 201.285156 207.738281 C 201.285156 215.347656 195.105469 221.527344 187.496094 221.527344 Z M 187.496094 221.527344 " fill-opacity="1" fill-rule="evenodd"/><path fill="#fed069" d="M 187.496094 229.410156 C 185.25 229.410156 183.421875 227.597656 183.421875 225.335938 L 183.421875 217.449219 C 183.421875 215.203125 185.25 213.375 187.496094 213.375 C 189.742188 213.375 191.570312 215.203125 191.570312 217.449219 L 191.570312 225.335938 C 191.570312 227.597656 189.742188 229.410156 187.496094 229.410156 Z M 187.496094 229.410156 " fill-opacity="1" fill-rule="evenodd"/><path fill="#fed069" d="M 214.796875 189.777344 C 212.550781 189.777344 210.722656 187.949219 210.722656 185.703125 L 210.722656 167.902344 C 210.722656 155.105469 200.3125 144.675781 187.5 144.675781 C 174.699219 144.675781 164.273438 155.089844 164.273438 167.902344 L 164.273438 185.703125 C 164.273438 187.949219 162.445312 189.777344 160.199219 189.777344 C 157.953125 189.777344 156.125 187.949219 156.125 185.703125 L 156.125 167.902344 C 156.125 150.609375 170.191406 136.527344 187.5 136.527344 C 204.789062 136.527344 218.875 150.59375 218.875 167.902344 L 218.875 185.703125 C 218.875 187.949219 217.046875 189.777344 214.800781 189.777344 Z M 214.796875 189.777344 " fill-opacity="1" fill-rule="evenodd"/></svg>